<svg width="532" height="378" viewBox="0 0 532 378" fill="none" xmlns="http://www.w3.org/2000/svg">
<g clip-path="url(#clip0_11_2447)">
<path d="M112.89 89.0167L133.01 119.638C133.01 119.638 150.164 127.68 170.213 143.827L165.414 152.18C165.414 152.18 132.322 137.073 123.853 130.689L108.389 103.661L112.89 89.0167Z" fill="#A0616A"/>
<path d="M182.245 158.659C184.165 155.526 181.885 150.064 177.152 146.458C172.42 142.853 167.027 142.47 165.107 145.602C163.187 148.735 165.467 154.197 170.199 157.803C174.932 161.408 180.324 161.791 182.245 158.659Z" fill="#A0616A"/>
<path d="M103.055 62.876L109.64 60.7938C109.64 60.7938 113.473 60.802 115.635 64.9991C117.797 69.1963 133.107 106.619 132.382 108.069C131.656 109.518 130.643 109.839 131.943 110.648C133.244 111.457 134.434 111.047 133.548 112.259C132.662 113.471 133.886 116.135 133.886 116.135L116.996 130.028L103.055 62.876Z" fill="#D5B263"/>
<path d="M77.5091 370.597L85.5421 370.596L89.3635 336.051L77.5074 336.052L77.5091 370.597Z" fill="#A0616A"/>
<path d="M105.031 370.393C105.281 370.863 105.413 372.379 105.413 372.925C105.413 374.604 104.193 375.965 102.687 375.965H77.8096C76.7823 375.965 75.9496 375.036 75.9496 373.891V372.736C75.9496 372.736 74.7189 369.266 77.2526 364.988C77.2526 364.988 80.4017 368.338 85.1072 363.092L86.4949 360.289L96.5393 368.479L102.107 369.243C103.325 369.41 104.405 369.217 105.031 370.393Z" fill="#2F2E41"/>
<path d="M106.583 361.869L114.506 363.352L123.408 329.991L111.715 327.802L106.583 361.869Z" fill="#A0616A"/>
<path d="M133.755 366.752C133.932 367.262 133.837 368.781 133.756 369.319C133.507 370.975 132.101 372.092 130.616 371.813L106.082 367.218C105.069 367.028 104.386 365.959 104.556 364.83L104.728 363.691C104.728 363.691 104.03 360.041 107.164 356.291C107.164 356.291 109.772 360.175 115.192 355.871L116.977 353.364L125.665 363.296L131.042 365.077C132.219 365.467 133.312 365.476 133.755 366.752Z" fill="#2F2E41"/>
<path d="M123.051 184.615C123.051 184.615 133.843 198.702 133.843 211.615C133.843 224.529 134.107 265.094 134.107 265.094C134.107 265.094 127.789 328.421 126.209 333.703C124.63 338.986 123.84 347.79 123.84 347.79L108.572 343.682C108.572 343.682 106.466 284.105 112.784 270.018L97.5163 221.887L92.2515 358.062H74.5273C74.5273 358.062 65.4009 286.453 70.1393 267.67C70.1393 267.67 59.6097 196.061 62.2421 191.952C64.8745 187.844 123.051 184.615 123.051 184.615Z" fill="#2F2E41"/>
<path d="M83.8277 44.3314L98.0427 45.5054L102.781 54.3098C102.781 54.3098 113.837 59.5924 115.417 67.2229C116.996 74.8534 117.522 164.072 117.522 164.072L125.42 176.985L124.893 188.137L61.7155 191.659V180.936L55.9242 168.18C55.9242 168.18 62.242 66.049 63.8214 65.462C65.4008 64.8751 77.5099 55.4837 77.5099 55.4837L83.8277 44.3314Z" fill="#D5B263"/>
<path d="M90.2612 42.1472C100.147 42.1472 108.162 33.2123 108.162 22.1906C108.162 11.1688 100.147 2.23389 90.2612 2.23389C80.3751 2.23389 72.3608 11.1688 72.3608 22.1906C72.3608 33.2123 80.3751 42.1472 90.2612 42.1472Z" fill="#A0616A"/>
<path d="M104.559 6.1388C103.649 3.25876 101.122 1.51151 98.3832 1.57956C98.267 1.58241 98.1511 1.58122 98.0363 1.57596C96.6571 1.51309 95.3334 0.987948 93.9811 0.679874C91.4608 0.105649 88.8033 0.2979 86.3707 1.23039C85.6145 1.52026 84.8575 1.88475 84.0579 1.88485C83.2583 1.88498 82.3873 1.39616 82.1923 0.531683C82.146 1.31437 82.0998 2.09702 82.0537 2.87966C81.7934 2.2462 81.5333 1.6127 81.273 0.979214L80.752 3.50551L79.0825 1.39417C79.2318 2.32477 78.7452 3.26272 78.0863 3.85769C77.4274 4.4527 76.6136 4.78182 75.8335 5.15251C72.4667 6.75249 69.3055 9.58523 68.3354 13.5197C67.7224 16.0054 68.043 18.6436 68.3678 21.1959C68.6549 23.4523 68.967 25.7867 70.0672 27.7075C70.7724 28.9388 71.7889 29.9749 72.2183 31.3553C72.6185 32.6418 72.4669 34.1148 73.0363 35.3196C73.6082 36.5297 74.7888 37.2144 75.9443 37.6741C77.0996 38.1341 78.3279 38.4593 79.3229 39.2595C80.3179 40.0597 81.4727 42.3648 83.6406 42.2408L84.3402 40.7753C85.06 40.1215 82.3963 40.6398 82.3685 39.6052C82.3407 38.5706 85.5736 37.9314 85.1154 37.0311C84.4128 35.6505 83.4621 34.449 82.6703 33.1297C81.7443 31.5868 81.0161 29.7841 81.3356 27.9009C81.4599 27.1684 81.7674 26.4764 82.2359 25.9443C83.5862 24.4103 85.0919 25.0845 86.5551 25.3039C87.5636 25.4553 88.7681 25.2806 89.2919 24.3077C89.9045 23.1696 89.2217 21.7217 89.3052 20.3976C89.3937 18.9946 90.3471 17.8442 91.3847 17.0443C92.4224 16.2445 93.6005 15.6617 94.534 14.7157C95.4674 13.7696 96.1323 12.2916 95.7254 10.9603C100.15 8.90658 100.827 8.71233 105.487 9.96477C105.265 8.66575 104.954 7.38585 104.559 6.1388Z" fill="#2F2E41"/>
<path d="M28.99 261.383V200.808C28.99 199.146 29.6252 197.556 30.7328 196.444C31.8403 195.333 33.3251 194.795 34.8075 194.97C48.5389 192.91 61.4717 193.89 73.1923 199.482C74.5199 199.482 75.6 200.686 75.6 202.166V262.953C75.6 264.433 74.5199 265.638 73.1923 265.638C60.2906 262.264 46.6827 263.142 32.8063 265.638C30.702 265.638 28.99 263.729 28.99 261.383Z" fill="#E6E6E6"/>
<path d="M28.99 266.775V205.56C28.99 202.323 31.352 199.689 34.2555 199.689C47.386 195.859 60.3652 195.853 73.1923 199.689C74.5199 199.689 75.6 200.893 75.6 202.374V262.538C75.6 264.016 74.5231 265.219 73.1982 265.223C60.5505 262.769 47.0022 265.159 32.8063 271.03C30.702 271.03 28.99 269.121 28.99 266.775Z" fill="#F2F2F2"/>
<path d="M59.3105 224.987H47.0323C42.6227 224.987 39.0353 220.988 39.0353 216.072C39.0353 211.155 42.6227 207.155 47.0323 207.155H59.3105C63.7205 207.155 67.3079 211.155 67.3079 216.072C67.3079 220.988 63.7205 224.987 59.3105 224.987Z" fill="#E6E6E6"/>
<path d="M70.5637 104.752L70.0944 136.357C70.0944 136.357 68.5944 160.987 64.8694 188.706L55.9902 189.337C55.9902 189.337 57.0827 146.058 56.6847 134.67L57.3126 109.376L70.5637 104.752Z" fill="#A0616A"/>
<path d="M61.2686 208.296C64.6699 208.167 67.2694 202.885 67.0747 196.499C66.88 190.112 63.9648 185.039 60.5635 185.168C57.1621 185.297 54.5626 190.579 54.7574 196.965C54.9521 203.352 57.8673 208.425 61.2686 208.296Z" fill="#A0616A"/>
<path d="M70.4257 64.5161L63.586 64.7938C63.586 64.7938 59.9414 66.1165 59.0424 70.8518C58.1434 75.5871 51.8419 124.593 52.9325 125.724C54.0231 126.854 55.0753 126.811 54.0614 128.027C53.0475 129.243 51.8015 129.261 52.9793 130.111C54.1572 130.96 53.7269 133.914 53.7269 133.914L72.6439 132.42L70.4257 64.5161Z" fill="#D5B263"/>
<path d="M521.694 346.88H339.712C338.656 346.88 337.61 346.7 336.604 346.345L336.497 346.297C279.514 314.724 230.658 297.493 187.138 293.616L186.972 293.579C182.667 292.061 179.775 287.659 179.775 282.625V11.4996C179.775 7.79744 181.312 4.4191 183.99 2.23125C186.669 0.0434046 190.021 -0.570508 193.189 0.544917L337.053 51.2773C337.915 51.5812 338.809 51.735 339.712 51.735H521.694C527.377 51.735 532 56.8893 532 63.2244V335.39C532 341.726 527.377 346.88 521.694 346.88ZM337.107 344.78C337.952 345.07 338.828 345.218 339.712 345.218H521.694C526.555 345.218 530.509 340.81 530.509 335.39V63.2244C530.509 57.8055 526.555 53.397 521.694 53.397H339.712C338.657 53.397 337.611 53.2172 336.604 52.8622L192.739 2.12981C190.03 1.17385 187.163 1.70052 184.871 3.57187C182.58 5.44364 181.266 8.33304 181.266 11.4996V282.625C181.266 286.9 183.704 290.642 187.343 291.967C231.021 295.875 280.012 313.151 337.107 344.78Z" fill="#3F3D56"/>
<path d="M344.571 334.568C394.19 314.993 449.546 317.24 508.352 332.616C515.734 334.546 522.812 328.349 522.812 319.895V72.1647C522.812 66.1489 519.134 60.8889 513.892 59.4599C451.856 42.5471 393.911 39.4354 342.846 59.5327C339.105 61.005 334.953 60.2073 331.796 57.5283C288.765 21.0093 244.725 2.69903 199.371 8.13581C193.438 8.84705 188.963 14.4844 188.963 21.1373V271.569C188.963 278.275 193.513 283.882 199.496 284.575C248.313 290.236 293.17 307.391 334.888 333.662C337.842 335.522 341.373 335.83 344.571 334.568Z" fill="#F2F2F2"/>
<path d="M342.978 320.676C339.598 320.676 336.27 319.64 333.337 317.61C298.302 293.351 260.131 279.18 219.887 275.489C210.452 274.623 203.06 265.651 203.06 255.062V41.1524C203.06 30.1734 210.698 21.1773 220.447 20.6721C249.748 19.1489 285.326 33.7168 332.405 66.5017C336.388 69.2743 341.23 70.0975 345.692 68.7634C390.436 55.3734 438.936 54.9822 493.97 67.5676C502.513 69.5218 508.715 77.9761 508.715 87.6709V296.467C508.715 302.767 506.173 308.62 501.741 312.523C497.276 316.454 491.531 317.864 485.978 316.39C433.917 302.576 389.213 303.574 349.308 319.444C347.236 320.269 345.096 320.676 342.978 320.676ZM224.63 22.227C223.243 22.227 221.875 22.2619 220.517 22.3325C211.564 22.7963 204.551 31.0628 204.551 41.1524V255.062C204.551 264.793 211.341 273.037 220.009 273.832C260.491 277.545 298.885 291.799 334.124 316.198C338.508 319.235 343.86 319.847 348.807 317.879C388.991 301.897 433.973 300.881 486.323 314.774C491.43 316.128 496.712 314.834 500.817 311.219C504.888 307.632 507.224 302.256 507.224 296.467V87.6709C507.224 78.7617 501.524 70.9918 493.67 69.1955C438.87 56.6625 390.592 57.0463 346.079 70.3686C341.218 71.822 335.947 70.9273 331.616 67.9113C286.999 36.842 252.833 22.227 224.63 22.227Z" fill="white"/>
<path d="M339.593 70.0047L338.102 70.02L340.176 320.296L341.667 320.28L339.593 70.0047Z" fill="white"/>
<path d="M217.593 53.4883L217.125 55.0658L321.501 93.5694L321.969 91.9919L217.593 53.4883Z" fill="#3F3D56"/>
<path d="M217.593 84.2914L217.125 85.8689L321.501 124.373L321.969 122.795L217.593 84.2914Z" fill="#3F3D56"/>
<path d="M217.593 115.094L217.125 116.672L321.501 155.175L321.969 153.598L217.593 115.094Z" fill="#3F3D56"/>
<path d="M217.593 145.897L217.125 147.474L321.501 185.978L321.969 184.4L217.593 145.897Z" fill="#3F3D56"/>
<path d="M489.811 93.6611H364.714V95.3231H489.811V93.6611Z" fill="#3F3D56"/>
<path d="M489.811 122.753H364.714V124.415H489.811V122.753Z" fill="#3F3D56"/>
<path d="M489.811 151.844H364.714V153.506H489.811V151.844Z" fill="#3F3D56"/>
<path d="M489.811 180.936H364.714V182.598H489.811V180.936Z" fill="#3F3D56"/>
<path d="M489.811 210.027H364.714V211.689H489.811V210.027Z" fill="#3F3D56"/>
<path d="M489.811 239.119H364.714V240.781H489.811V239.119Z" fill="#3F3D56"/>
<path d="M40.4428 363.596C38.9029 363.704 38.0519 361.571 39.2169 360.328L39.3328 359.814C39.3176 359.773 39.3022 359.732 39.2868 359.691C37.7295 355.551 32.4518 355.58 30.9078 359.726C29.5374 363.405 27.7926 367.091 27.363 370.982C27.1704 372.7 27.257 374.449 27.5989 376.135C24.3878 368.315 22.698 359.775 22.698 351.188C22.698 349.03 22.8039 346.872 23.0205 344.72C23.1987 342.96 23.4442 341.21 23.762 339.476C25.4806 330.105 29.202 321.179 34.5699 313.724C37.1503 312.151 39.3023 309.693 40.6021 306.747C41.0691 305.684 41.435 304.541 41.6083 303.376C41.3146 303.419 40.501 298.433 40.7225 298.127C40.3132 297.434 39.5807 297.09 39.1338 296.415C36.9108 293.055 33.8482 293.641 32.2494 298.207C28.8339 300.129 28.8009 303.316 30.8966 306.382C32.2299 308.332 32.4131 310.971 33.583 313.058C33.4626 313.23 33.3374 313.397 33.2171 313.568C31.01 316.724 29.1011 320.117 27.4919 323.68C27.9467 319.72 27.2752 314.948 26.1305 311.872C24.8275 308.368 22.3851 305.416 20.2343 302.387C17.6509 298.747 12.3533 300.336 11.8981 304.949C11.8937 304.993 11.8894 305.038 11.8852 305.083C12.2047 305.284 12.5177 305.497 12.8234 305.723C14.5671 307.008 13.9645 310.022 11.8983 310.378L11.8515 310.386C11.9671 311.668 12.1645 312.94 12.4533 314.191C9.6941 326.087 15.651 330.42 24.1567 330.615C24.3444 330.722 24.5274 330.83 24.7152 330.932C23.8534 333.637 23.1649 336.412 22.6547 339.224C22.1973 341.709 21.8795 344.221 21.7014 346.744C21.48 349.926 21.4992 353.125 21.74 356.303L21.7255 356.19C21.1141 352.69 19.4099 349.422 16.9353 347.157C13.249 343.781 8.041 342.538 4.06413 339.824C2.14978 338.518 -0.303309 340.206 0.0307944 342.68L0.0470583 342.799C0.639201 343.067 1.21689 343.378 1.77535 343.727C2.09481 343.928 2.40778 344.141 2.7135 344.367C4.45728 345.653 3.85463 348.666 1.78845 349.022L1.74162 349.03C1.70793 349.035 1.67903 349.041 1.64539 349.046C2.66119 351.735 4.07654 354.231 5.84817 356.383C7.57342 366.768 14.9834 367.753 22.9098 364.729H22.9146C23.7812 368.937 25.0473 373.049 26.6746 376.967H40.1062C40.1544 376.8 40.1977 376.628 40.241 376.462C38.999 376.548 37.7473 376.467 36.5244 376.215C37.521 374.852 38.5175 373.478 39.5141 372.115C39.5381 372.088 39.5574 372.061 39.5767 372.034C40.0821 371.336 40.5925 370.644 41.0979 369.946L41.0982 369.945C41.1299 367.803 40.8991 365.668 40.4428 363.596Z" fill="#F2F2F2"/>
<path d="M190.673 377.011C190.673 377.56 190.278 378 189.786 378H0.991479C0.499559 378 0.104492 377.56 0.104492 377.011C0.104492 376.463 0.499559 376.022 0.991479 376.022H189.786C190.278 376.022 190.673 376.463 190.673 377.011Z" fill="#CCCCCC"/>
<path d="M495.065 324.443C504.533 324.443 512.209 315.886 512.209 305.33C512.209 294.774 504.533 286.217 495.065 286.217C485.597 286.217 477.922 294.774 477.922 305.33C477.922 315.886 485.597 324.443 495.065 324.443Z" fill="#D5B263"/>
<path d="M503.094 304.61L492.457 297.763C491.96 297.443 491.339 297.843 491.339 298.482V304.499H488.148C487.736 304.499 487.402 304.871 487.402 305.33C487.402 305.789 487.736 306.161 488.148 306.161H491.339V312.178C491.339 312.818 491.96 313.217 492.457 312.897L503.094 306.05C503.59 305.73 503.59 304.93 503.094 304.61Z" fill="white"/>
<path d="M250.942 251.454C251.609 242.937 254.781 234.8 259.858 228.397C264.803 222.16 271.562 217.881 278.851 216.138C282.92 215.165 287.135 214.975 291.255 215.63C292.242 215.787 292.215 217.533 291.219 217.375C284.205 216.259 276.957 217.622 270.655 221.232C264.196 224.933 259.026 230.952 255.833 238.21C254.006 242.36 252.867 246.89 252.506 251.495C252.419 252.61 250.854 252.576 250.942 251.454Z" fill="white"/>
<path d="M289.52 208.627L301.567 215.253C302.005 215.494 302.077 216.29 301.705 216.633L290.3 227.143C289.528 227.855 288.442 226.598 289.22 225.881L300.624 215.371L300.762 216.75L288.715 210.124C287.811 209.626 288.623 208.133 289.52 208.627Z" fill="white"/>
</g>
<defs>
<clipPath id="clip0_11_2447">
<rect width="532" height="378" fill="white"/>
</clipPath>
</defs>
</svg>
